HIERARCHY
ROOT SpineBase
{
  OFFSET 0.000000 0.000000 0.000000
  CHANNELS 6 Xposition Yposition Zposition Zrotation Xrotation Yrotation
  JOINT SpineMid
  {
    OFFSET 0.000000 32.396231 0.000000
    CHANNELS 3 Zrotation Xrotation Yrotation
    JOINT SpineShoulder
    {
      OFFSET -0.012628 24.031096 -0.756079
      CHANNELS 3 Zrotation Xrotation Yrotation
      JOINT Neck
      {
        OFFSET -0.015038 7.926181 -0.571866
        CHANNELS 3 Zrotation Xrotation Yrotation
        JOINT Head
        {
          OFFSET 6.938776 11.405923 2.802713
          CHANNELS 3 Zrotation Xrotation Yrotation
          End Site
          {
            OFFSET 0 0 0
          }
        }
      }
      JOINT ShoulderLeft
      {
        OFFSET -7.432377 -5.304673 -13.972312
        CHANNELS 3 Zrotation Xrotation Yrotation
        JOINT ElbowLeft
        {
          OFFSET -0.117353 -25.690357 -5.277412
          CHANNELS 3 Zrotation Xrotation Yrotation
          JOINT WristLeft
          {
            OFFSET 8.737022 -23.768745 3.431393
            CHANNELS 3 Zrotation Xrotation Yrotation
            JOINT HandLeft
            {
              OFFSET 1.581031 -2.632166 2.600019
              CHANNELS 3 Zrotation Xrotation Yrotation
              JOINT HandTipLeft
              {
                OFFSET 4.199386 -4.674794 -1.512636
                CHANNELS 3 Zrotation Xrotation Yrotation
                End Site
                {
                  OFFSET 0 0 0
                }
              }
              JOINT ThumbLeft
              {
                OFFSET 2.026996 4.342669 3.307701
                CHANNELS 3 Zrotation Xrotation Yrotation
                End Site
                {
                  OFFSET 0 0 0
                }
              }
            }
          }
        }
      }
      JOINT ShoulderRight
      {
        OFFSET 10.008252 -2.957621 13.342937
        CHANNELS 3 Zrotation Xrotation Yrotation
        JOINT ElbowRight
        {
          OFFSET -6.693151 -12.531529 -23.332560
          CHANNELS 3 Zrotation Xrotation Yrotation
          JOINT WristRight
          {
            OFFSET 1.763192 -2.421510 -19.934812
            CHANNELS 3 Zrotation Xrotation Yrotation
            JOINT HandRight
            {
              OFFSET 0.640631 -0.830579 -6.237044
              CHANNELS 3 Zrotation Xrotation Yrotation
              JOINT HandTipRight
              {
                OFFSET -0.324924 -2.760940 -0.844208
                CHANNELS 3 Zrotation Xrotation Yrotation
                End Site
                {
                  OFFSET 0 0 0
                }
              }
              JOINT ThumbRight
              {
                OFFSET 1.206610 -1.247692 -1.864286
                CHANNELS 3 Zrotation Xrotation Yrotation
                End Site
                {
                  OFFSET 0 0 0
                }
              }
            }
          }
        }
      }
    }
  }
  JOINT HipLeft
  {
    OFFSET -4.944161 1.228494 -7.865587
    CHANNELS 3 Zrotation Xrotation Yrotation
    JOINT KneeLeft
    {
      OFFSET -4.171074 -31.610697 -0.363579
      CHANNELS 3 Zrotation Xrotation Yrotation
      JOINT AnkleLeft
      {
        OFFSET -5.558224 -34.980921 6.825078
        CHANNELS 3 Zrotation Xrotation Yrotation
        JOINT FootLeft
        {
          OFFSET 8.607905 -4.087141 -9.005451
          CHANNELS 3 Zrotation Xrotation Yrotation
          End Site
          {
            OFFSET 0 0 0
          }
        }
      }
    }
  }
  JOINT HipRight
  {
    OFFSET 4.040628 0.088109 0.559879
    CHANNELS 3 Zrotation Xrotation Yrotation
    JOINT KneeRight
    {
      OFFSET 0.037692 -31.969745 11.077242
      CHANNELS 3 Zrotation Xrotation Yrotation
      JOINT AnkleRight
      {
        OFFSET -15.748458 -37.551606 -9.891632
        CHANNELS 3 Zrotation Xrotation Yrotation
        JOINT FootRight
        {
          OFFSET 8.579173 -4.061647 -8.993432
          CHANNELS 3 Zrotation Xrotation Yrotation
          End Site
          {
            OFFSET 0 0 0
          }
        }
      }
    }
  }
}
MOTION
Frames: 9
Frame Time: 0.033333
25.929513 75.743819 316.962514 -11.632447 -5.044329 -41.648147 1.269151 0.976471 40.724079 0.598696 -0.451588 -0.435396 11.487088 3.392610 0.970912 0.000000 0.000000 0.000000 2.596002 7.251982 2.353893 26.704869 -13.619448 0.080798 -44.631689 22.257373 -7.031554 20.597023 -35.348550 -6.546052 0.000000 0.000000 0.000000 0.000000 0.000000 0.000000 9.365816 5.727799 0.219295 -0.000000 0.000000 0.000000 -0.000000 0.000000 0.000000 1.731567 0.252053 -0.563590 0.000000 0.000000 0.000000 0.000000 0.000000 0.000000 20.083173 32.893828 33.486278 -28.079636 -2.584724 -2.689283 1.631913 -9.666649 0.907861 0.000000 0.000000 0.000000 -18.933258 24.991248 45.639310 48.725578 -54.398229 43.673687 -33.329496 33.622818 37.648252 0.000000 0.000000 0.000000
24.442343 75.451449 315.740657 -12.915068 -6.766023 -45.307947 1.168918 0.745317 44.053689 0.588702 -0.297675 -0.499805 13.865376 4.596695 0.837761 0.000000 0.000000 0.000000 4.583173 7.908978 2.203319 23.049931 -16.607567 -1.935521 -46.375681 28.982255 -0.308587 23.736521 -38.944172 -5.287014 0.000000 0.000000 0.000000 0.000000 0.000000 0.000000 10.806765 9.083175 -0.621868 0.228345 -0.061817 0.392456 0.040886 0.070570 -0.059674 1.439769 -1.310650 -0.109360 0.000000 0.000000 0.000000 0.000000 0.000000 0.000000 19.872198 37.305268 35.668605 -29.650903 -0.694609 -2.981975 0.808442 -12.419179 0.629753 0.000000 0.000000 0.000000 -31.165947 30.142997 54.428704 82.348748 -60.339907 79.047727 -39.288096 42.708525 46.258439 0.000000 0.000000 0.000000
23.698540 75.242672 313.968490 -13.583056 -8.860308 -49.855967 0.792997 0.582555 48.294271 0.528411 -0.079393 -0.533238 16.313514 5.785977 0.445630 0.000000 0.000000 0.000000 6.471120 8.691538 1.874327 18.752334 -18.860304 -3.893263 -46.237945 32.880498 5.254269 25.195057 -39.537692 -3.820754 0.000000 0.000000 0.000000 0.000000 0.000000 0.000000 11.890207 10.536170 -0.610888 0.183174 -0.032043 0.286341 0.031495 0.033691 -0.063344 1.432744 -0.909153 -0.190594 0.000000 0.000000 0.000000 0.000000 0.000000 0.000000 17.335934 40.861440 39.628457 -30.540350 0.676359 -3.022896 0.085615 -13.991628 0.251622 0.000000 0.000000 0.000000 -43.776623 32.506684 64.862132 107.743846 -58.586106 107.263957 -42.697977 48.362360 51.168536 0.000000 0.000000 0.000000
23.948859 74.950055 311.881040 -13.199821 -10.524643 -52.745737 0.467279 0.124735 51.049173 0.438398 0.053932 -0.533071 18.507424 6.979401 -0.393415 0.000000 0.000000 0.000000 7.780144 9.165503 1.403669 13.229372 -20.626502 -6.106896 -44.683470 36.451120 11.154346 26.490475 -40.823605 -3.970708 0.000000 0.000000 0.000000 0.000000 0.000000 0.000000 12.182943 10.243463 0.135378 0.012334 0.727376 -0.406758 -0.000000 0.000000 0.000000 1.576812 0.293640 -0.521200 0.000000 0.000000 0.000000 0.000000 0.000000 0.000000 14.049876 41.594360 43.088185 -30.342981 1.281240 -2.815485 -0.147860 -14.136222 -0.445190 0.000000 0.000000 0.000000 -52.615613 33.676079 72.458796 118.741414 -57.579006 121.916870 -41.976642 50.367368 50.318843 0.000000 0.000000 0.000000
24.476599 74.761861 309.634576 -12.856845 -12.701091 -55.453168 0.319745 0.002797 53.565798 0.261398 0.081051 -0.525096 19.365404 8.259774 -0.687022 0.000000 0.000000 0.000000 8.841368 10.228294 0.867993 8.228544 -20.846284 -7.686692 -39.579630 36.079993 11.468676 22.992875 -38.071916 -4.100273 0.000000 0.000000 0.000000 0.000000 0.000000 0.000000 12.290969 9.319769 1.368532 -0.499179 0.334874 -1.022255 -0.089941 -0.300548 -0.020295 2.102760 4.063879 -1.472022 0.000000 0.000000 0.000000 0.000000 0.000000 0.000000 10.479820 41.850454 46.468682 -29.883276 1.679188 -2.476996 -0.442780 -13.610709 -0.661589 0.000000 0.000000 0.000000 -55.956819 32.989695 76.211506 116.262564 -61.520257 121.267737 -37.195239 47.719012 44.101496 0.000000 0.000000 0.000000
24.618426 74.925885 307.282228 -13.157108 -15.061274 -56.460032 0.067797 0.200411 54.284548 0.365063 -0.111038 -0.567648 20.241025 10.040239 -1.281768 0.000000 0.000000 0.000000 10.090091 12.227154 0.241140 2.962001 -20.603413 -8.793070 -32.347735 34.421529 9.799433 19.494195 -33.825384 -3.543457 0.000000 0.000000 0.000000 0.000000 0.000000 0.000000 12.638488 7.802861 2.913831 -1.075300 0.671622 -1.981812 -0.182303 -0.542351 0.016862 2.703174 7.802557 -2.492137 0.000000 0.000000 0.000000 0.000000 0.000000 0.000000 9.666004 42.478783 46.883633 -29.762315 1.718648 -1.957539 -1.401088 -12.341863 -0.048013 0.000000 0.000000 0.000000 -55.736034 32.677259 76.620958 111.146310 -62.307431 115.498077 -39.073231 44.755830 45.271197 0.000000 0.000000 0.000000
24.778455 75.254705 305.106930 -13.437860 -16.792804 -55.909762 -0.196591 0.529523 53.513698 0.386266 -0.536229 -0.625737 20.517247 10.859742 -1.167290 0.000000 0.000000 0.000000 10.996538 13.859276 -0.273659 -1.976056 -20.823478 -10.082219 -26.166113 34.268488 10.001170 16.646777 -33.089333 -5.592129 0.000000 0.000000 0.000000 0.000000 0.000000 0.000000 13.087062 5.535822 4.623063 -1.743007 1.076654 -2.963718 -0.279973 -0.784833 0.061055 3.446107 11.761249 -3.644853 0.000000 0.000000 0.000000 0.000000 0.000000 0.000000 10.817622 42.433236 45.248554 -29.597301 2.165313 -1.455550 -2.134211 -11.252962 0.275263 0.000000 0.000000 0.000000 -58.557382 34.079764 78.116923 114.313604 -61.497291 119.155554 -41.143218 41.395234 45.959390 0.000000 0.000000 0.000000
24.980507 75.505001 303.308293 -13.751050 -18.873839 -53.564530 0.058562 0.332704 50.816472 0.445687 -0.168219 -0.611265 21.122707 11.602942 -1.021734 0.000000 0.000000 0.000000 11.621814 15.452674 -0.687026 -6.908926 -21.080924 -11.729550 -21.109290 36.034119 12.065201 15.826741 -35.279564 -9.322665 0.000000 0.000000 0.000000 0.000000 0.000000 0.000000 14.491351 2.030127 5.488716 -3.585013 -0.350299 -0.313371 -0.611784 -1.387775 -1.899968 2.749333 15.458374 -4.100717 0.000000 0.000000 0.000000 0.000000 0.000000 0.000000 13.128427 42.460487 41.178822 -29.621182 3.126802 -1.149319 -3.055590 -11.114206 1.461239 0.000000 0.000000 0.000000 -59.913402 36.844318 77.960147 115.139266 -61.210657 120.157004 -42.581881 38.265620 45.862329 0.000000 0.000000 0.000000
24.861962 75.828135 302.649415 -14.251046 -20.963013 -52.623667 0.355687 0.030497 49.460420 0.512239 0.141436 -0.614019 20.288783 13.081643 -0.425537 0.000000 0.000000 0.000000 11.188903 13.922608 -0.557546 -8.532886 -17.468664 -12.186841 -18.012743 37.725330 14.105719 15.340052 -37.830056 -12.739774 0.000000 0.000000 0.000000 0.000000 0.000000 0.000000 14.766054 1.661460 7.659939 -3.528330 0.623545 -2.651513 -0.480561 -1.143031 0.916280 4.332005 17.704239 -7.591639 0.000000 0.000000 0.000000 0.000000 0.000000 0.000000 13.817911 43.703452 38.843237 -29.954996 3.476759 -1.069748 -3.310516 -11.504889 0.802920 0.000000 0.000000 0.000000 -60.053891 37.480506 77.012818 113.286922 -60.811571 117.173646 -42.962110 37.798187 44.224627 0.000000 0.000000 0.000000
